<?xml version="1.0" standalone="no"?>
<!DOCTYPE svg PUBLIC "-//W3C//DTD SVG 20010904//EN"
 "http://www.w3.org/TR/2001/REC-SVG-20010904/DTD/svg10.dtd">
<svg version="1.0" xmlns="http://www.w3.org/2000/svg"
 width="300.000000pt" height="300.000000pt" viewBox="0 0 300.000000 300.000000"
 preserveAspectRatio="xMidYMid meet">
<metadata>
Created by potrace 1.10, written by Peter Selinger 2001-2011
</metadata>
<g transform="translate(0.000000,300.000000) scale(0.100000,-0.100000)"
fill="#000000" stroke="none">
<path d="M1215 1784 c-113 -28 -267 -45 -337 -37 -61 7 -81 -7 -72 -52 4 -23
0 -41 -11 -59 -12 -18 -15 -35 -10 -58 10 -47 22 -58 66 -58 45 0 47 -5 14
-42 -30 -35 -36 -35 -63 2 -37 49 -92 36 -92 -21 0 -15 -4 -30 -8 -33 -5 -3
-9 -29 -10 -58 -3 -75 15 -41 29 56 14 96 33 102 73 21 14 -30 28 -55 30 -55
2 0 23 25 47 55 46 58 86 75 76 33 -3 -13 -9 -45 -12 -73 -10 -74 -14 -83 -38
-88 -16 -3 -14 -4 8 -5 27 -1 37 9 96 91 36 51 72 93 80 95 11 2 25 -23 48
-83 l33 -86 43 38 c24 21 44 41 44 45 1 4 -13 22 -30 40 -32 34 -33 33 -13
-31 4 -13 -1 -23 -15 -31 -20 -10 -23 -7 -36 27 -30 76 -39 88 -72 91 -26 3
-36 -4 -68 -43 -21 -25 -40 -44 -42 -42 -2 3 -5 18 -8 35 -4 39 -12 52 -31 52
-23 0 -16 24 17 53 41 36 94 36 146 1 34 -23 44 -25 98 -19 67 8 77 14 79 46
2 35 23 34 56 -3 l30 -33 218 -6 c212 -5 218 -5 265 18 62 29 84 29 127 -5 63
-49 56 -51 -145 -50 -120 0 -190 -4 -198 -11 -10 -7 -17 -7 -24 0 -19 19 -57
6 -71 -24 l-14 -29 -32 31 c-45 44 -68 40 -131 -21 l-54 -52 30 -37 c34 -44
35 -49 9 -49 -11 0 -29 15 -43 35 l-24 35 -33 -35 c-28 -29 -41 -35 -77 -35
-36 0 -43 3 -43 20 0 18 -7 20 -55 20 -43 0 -56 -4 -65 -19 -5 -11 -20 -22
-32 -24 -18 -3 -16 -5 7 -6 17 0 36 4 43 11 13 13 69 13 85 0 17 -14 113 -18
129 -5 27 21 46 21 64 2 16 -18 16 -20 1 -37 -21 -23 -22 -46 -2 -62 24 -20
393 -21 412 -2 27 28 10 61 -40 76 -16 5 -16 8 -3 28 8 13 18 41 22 63 7 42
19 56 40 48 8 -3 11 -22 8 -61 -5 -55 -4 -56 9 -27 8 17 17 49 21 73 l6 42
-35 0 c-28 0 -35 4 -35 19 0 18 8 19 90 19 50 0 92 -3 94 -7 9 -15 -11 -30
-44 -33 -29 -2 -35 -7 -38 -28 -10 -99 -13 -109 -35 -113 -14 -4 -12 -5 7 -4
27 2 31 6 42 56 11 51 31 78 46 63 4 -4 8 -32 10 -62 3 -51 5 -55 30 -58 19
-2 31 3 40 17 16 26 34 27 48 1 7 -13 20 -20 38 -19 21 0 23 2 9 7 -9 4 -26
22 -37 40 -28 46 -65 45 -74 -3 -5 -26 -12 -35 -26 -35 -23 0 -23 -4 -11 57 5
26 12 65 16 86 l6 37 52 0 c93 0 136 -46 83 -87 l-25 -20 22 -31 c12 -18 27
-30 33 -28 7 3 22 -3 34 -11 25 -18 120 -19 152 -2 46 24 66 110 37 158 -12
19 -60 39 -81 33 -5 -1 -8 14 -8 33 0 25 -6 39 -24 50 -49 32 -201 88 -280
102 -44 8 -108 27 -141 41 -125 53 -174 64 -315 67 -118 4 -148 1 -235 -21z
m290 -4 c70 -10 236 -60 287 -86 15 -8 42 -14 59 -14 82 0 339 -97 339 -128 0
-13 -13 -14 -87 -8 -75 6 -90 10 -108 30 -43 52 -105 57 -159 15 -25 -20 -34
-20 -251 -13 -206 6 -225 8 -230 25 -4 11 -4 23 -1 28 6 10 -122 26 -132 17
-3 -4 4 -20 16 -36 12 -16 22 -32 22 -35 0 -3 -30 -5 -66 -5 -56 0 -71 4 -96
25 -49 41 -157 27 -173 -24 -5 -17 -42 -31 -85 -31 -19 0 -43 51 -34 74 3 7
16 18 30 25 l26 11 -21 36 c-12 19 -21 36 -21 37 0 1 70 2 155 1 84 0 152 3
149 8 -3 4 6 8 19 8 13 0 37 4 53 10 35 12 179 38 214 39 14 0 57 -4 95 -9z
m625 -268 c0 -12 -22 -32 -34 -32 -6 0 -22 9 -36 20 l-25 20 48 0 c26 0 47 -4
47 -8z m-643 -73 l48 -62 6 29 c4 16 7 44 8 62 1 25 5 32 21 32 24 0 24 -2 8
-102 -14 -97 -27 -99 -88 -18 -24 33 -45 58 -47 57 -1 -2 -6 -28 -10 -58 -7
-45 -12 -54 -28 -54 -11 0 -19 6 -17 13 1 8 8 47 14 88 7 46 16 74 24 74 7 0
34 -28 61 -61z m190 39 c-3 -13 -9 -45 -12 -73 -10 -74 -14 -85 -36 -85 -22 0
-22 -4 -10 57 5 26 12 65 16 86 5 29 10 37 27 37 16 0 19 -5 15 -22z m594 -7
c43 -44 34 -96 -23 -131 -90 -55 -188 14 -143 100 32 62 119 78 166 31z m-731
-173 c0 7 9 12 20 12 11 0 20 5 20 10 0 7 6 7 18 1 9 -5 25 -12 35 -15 9 -3
17 -10 17 -15 0 -8 -85 -7 -245 4 -84 5 -88 7 -25 14 47 5 57 10 68 33 l13 28
39 -42 c22 -23 40 -36 40 -30z m-195 -37 c6 -11 -33 -36 -42 -27 -3 3 -3 12 0
21 7 17 33 20 42 6z m55 -10 c0 -14 -6 -19 -20 -18 -31 2 -24 37 7 37 7 0 13
-9 13 -19z m53 -1 c-6 -22 -33 -28 -33 -7 0 17 10 27 26 27 7 0 10 -8 7 -20z
m64 11 c10 9 13 7 13 -10 0 -17 -6 -21 -29 -21 -25 0 -28 3 -24 21 4 14 9 17
16 10 7 -7 15 -7 24 0z m99 -4 c14 17 15 17 12 -2 -2 -12 -12 -21 -26 -23 -24
-4 -25 -2 -15 25 7 17 8 17 11 0 4 -18 4 -18 18 0z m54 2 c0 -8 5 -8 15 1 13
10 15 9 15 -9 0 -16 -6 -20 -25 -19 -17 2 -25 8 -25 20 0 10 5 18 10 18 6 0
10 -5 10 -11z"/>
<path d="M1268 1752 c-80 -16 -103 -32 -45 -32 17 0 43 -3 57 -7 22 -6 23 -5
12 9 -20 24 -2 30 117 38 l106 7 -85 1 c-47 0 -120 -7 -162 -16z"/>
<path d="M1347 1742 l-49 -7 24 -22 c21 -19 42 -22 211 -33 103 -7 200 -10
215 -7 35 7 66 -8 38 -19 -27 -10 -509 25 -591 43 -40 9 -345 10 -345 1 0 -4
5 -10 10 -13 6 -3 10 -17 10 -30 0 -18 -7 -26 -25 -31 -14 -3 -25 -12 -25 -19
0 -54 62 -64 98 -15 41 55 146 65 192 17 17 -18 30 -21 71 -19 l49 4 -17 29
c-31 53 -32 53 279 18 59 -7 105 -15 102 -18 -3 -3 -58 -4 -122 -2 -106 3
-115 2 -103 -13 12 -14 42 -16 220 -16 187 0 211 2 246 20 60 31 117 27 160
-12 31 -26 47 -32 105 -37 39 -4 66 -3 62 1 -20 20 -191 81 -251 90 -36 5 -79
14 -96 20 -16 5 -41 12 -55 13 -14 2 -58 16 -98 30 -78 28 -220 40 -315 27z
m-202 -72 c30 -11 44 -38 25 -50 -10 -6 -110 37 -129 56 -9 8 79 4 104 -6z
m-193 -20 c-19 -11 -43 -29 -55 -40 -27 -26 -30 -21 -10 23 16 34 21 37 58 37
l40 0 -33 -20z"/>
<path d="M2150 1440 c-39 -39 -19 -80 37 -80 55 0 93 56 61 88 -19 19 -76 14
-98 -8z m80 -19 c0 -20 -27 -40 -47 -35 -21 6 -22 31 0 45 11 8 47 0 47 -10z"/>
<path d="M1218 1503 c12 -2 26 -12 32 -21 27 -48 27 -48 62 -15 18 17 42 33
53 36 15 3 13 5 -8 6 -15 0 -38 -6 -51 -14 -21 -14 -25 -14 -39 0 -9 8 -28 14
-44 14 -23 -2 -24 -2 -5 -6z"/>
<path d="M1940 1439 c0 -18 5 -20 42 -17 31 2 44 8 46 21 3 14 -4 17 -42 17
-40 0 -46 -3 -46 -21z"/>
<path d="M1051 1421 l-22 -31 36 0 c33 0 36 2 30 23 -12 38 -22 40 -44 8z"/>
<path d="M756 1414 c-3 -9 -6 -33 -6 -55 0 -33 -3 -39 -22 -40 -20 -1 -20 -2
-4 -6 12 -3 26 3 37 18 13 17 20 20 31 12 7 -6 31 -10 52 -9 36 2 41 5 49 35
14 58 4 66 -28 22 -16 -22 -37 -41 -45 -41 -8 0 -23 18 -33 40 -19 44 -22 47
-31 24z"/>
</g>
</svg>
